<svg viewBox="0 0 128 128" xmlns="http://www.w3.org/2000/svg">
  <!-- Left section (dark gray - metadata) -->
  <rect x="8" y="12" width="52" height="104" rx="4" fill="#2A2A2A"/>
  
  <!-- Right section (teal/blue - clean) -->
  <rect x="68" y="12" width="52" height="104" rx="4" fill="#3A8D8D"/>
  
  <!-- Divider line -->
  <line x1="64" y1="12" x2="64" y2="116" stroke="#555555" stroke-width="2"/>
  
  <!-- Left side: file icon outline (dark) -->
  <g fill="none" stroke="#4A4A4A" stroke-width="2" stroke-linecap="round" stroke-linejoin="round">
    <!-- Document body -->
    <rect x="18" y="28" width="28" height="40" rx="2"/>
    <!-- File corner fold -->
    <path d="M 42 28 L 46 28 L 46 32 L 42 32"/>
  </g>
  
  <!-- Left side: horizontal lines (metadata) -->
  <line x1="20" y1="38" x2="40" y2="38" stroke="#5A5A5A" stroke-width="1.5" stroke-linecap="round"/>
  <line x1="20" y1="45" x2="40" y2="45" stroke="#5A5A5A" stroke-width="1.5" stroke-linecap="round"/>
  <line x1="20" y1="52" x2="36" y2="52" stroke="#5A5A5A" stroke-width="1.5" stroke-linecap="round"/>
  
  <!-- Right side: file icon outline (light) -->
  <g fill="none" stroke="#E0E0E0" stroke-width="2" stroke-linecap="round" stroke-linejoin="round">
    <!-- Document body -->
    <rect x="78" y="28" width="28" height="40" rx="2"/>
    <!-- File corner fold -->
    <path d="M 102 28 L 106 28 L 106 32 L 102 32"/>
  </g>
  
  <!-- Right side: horizontal lines (clean) -->
  <line x1="80" y1="38" x2="100" y2="38" stroke="#B0E0E0" stroke-width="1.5" stroke-linecap="round"/>
  <line x1="80" y1="45" x2="100" y2="45" stroke="#B0E0E0" stroke-width="1.5" stroke-linecap="round"/>
  <line x1="80" y1="52" x2="96" y2="52" stroke="#B0E0E0" stroke-width="1.5" stroke-linecap="round"/>
  
  <!-- Checkmark on right side -->
  <g fill="none" stroke="#5FD3BC" stroke-width="2.5" stroke-linecap="round" stroke-linejoin="round">
    <path d="M 84 68 L 88 72 L 98 62"/>
  </g>
</svg>